<?xml version="1.0"?>
<!DOCTYPE svg PUBLIC "-//W3C//DTD SVG 1.1//EN" "http://www.w3.org/Graphics/SVG/1.1/DTD/svg11.dtd">
<svg width="22.669500000000028mm" height="356.04449999999997mm" viewBox="0 0 22.669500000000028 356.04449999999997" xmlns="http://www.w3.org/2000/svg" version="1.1">
<g id="Body014" transform="translate(165.222250,178.022250) scale(1,-1)">
<path id="Body014_f0000"  d="M -164.99999999999994 38.099999999999994 L -164.99999999999994 177.79999999999998 L -142.77499999999995 177.79999999999998 L -142.77499999999995 38.099999999999994 L -164.99999999999994 38.099999999999994 Z " stroke="#191919" stroke-width="0.35 px" style="stroke-width:0.35;stroke-miterlimit:4;stroke-dasharray:none;stroke-linecap:square;fill:#cccccc;fill-opacity:1.0;fill-rule: evenodd"/>
<path id="Body014_f0001"  d="M -164.99999999999994 38.1 L -164.99999999999994 38.099999999999994 L -142.77499999999995 38.099999999999994 L -142.77499999999995 38.1 L -164.99999999999994 38.1 Z " stroke="#191919" stroke-width="0.35 px" style="stroke-width:0.35;stroke-miterlimit:4;stroke-dasharray:none;stroke-linecap:square;fill:#cccccc;fill-opacity:1.0;fill-rule: evenodd"/>
<path id="Body014_f0002"  d="M -164.99999999999994 177.79999999999998 L -164.99999999999994 38.1 L -142.77499999999995 38.1 L -142.77499999999995 177.79999999999998 L -164.99999999999994 177.79999999999998 Z " stroke="#191919" stroke-width="0.35 px" style="stroke-width:0.35;stroke-miterlimit:4;stroke-dasharray:none;stroke-linecap:square;fill:#cccccc;fill-opacity:1.0;fill-rule: evenodd"/>
<path id="Body014_f0003"  d="M -164.99999999999994 11.1125 L -142.77499999999995 11.1125 Q -142.77499999999995 13.47038418160448 -142.77499999999995 177.79999999999998 L -164.99999999999994 177.79999999999998 Q -164.99999999999994 13.47038418160448 -164.99999999999994 11.1125 Z " stroke="#191919" stroke-width="0.35 px" style="stroke-width:0.35;stroke-miterlimit:4;stroke-dasharray:none;stroke-linecap:square;fill:#cccccc;fill-opacity:1.0;fill-rule: evenodd"/>
<path id="Body014_f0004"  d="M -164.99999999999994 11.1125 L -164.99999999999994 11.1125 L -142.77499999999995 11.1125 L -142.77499999999995 11.1125 L -164.99999999999994 11.1125 Z " stroke="#191919" stroke-width="0.35 px" style="stroke-width:0.35;stroke-miterlimit:4;stroke-dasharray:none;stroke-linecap:square;fill:#cccccc;fill-opacity:1.0;fill-rule: evenodd"/>
<path id="Body014_f0005"  d="M -164.99999999999994 -11.1125 L -164.99999999999994 11.1125 L -142.77499999999995 11.1125 L -142.77499999999995 -11.1125 L -164.99999999999994 -11.1125 Z " stroke="#191919" stroke-width="0.35 px" style="stroke-width:0.35;stroke-miterlimit:4;stroke-dasharray:none;stroke-linecap:square;fill:#cccccc;fill-opacity:1.0;fill-rule: evenodd"/>
<path id="Body014_f0006"  d="M -164.99999999999994 -11.1125 L -164.99999999999994 -11.1125 L -142.77499999999995 -11.1125 L -142.77499999999995 -11.1125 L -164.99999999999994 -11.1125 Z " stroke="#191919" stroke-width="0.35 px" style="stroke-width:0.35;stroke-miterlimit:4;stroke-dasharray:none;stroke-linecap:square;fill:#cccccc;fill-opacity:1.0;fill-rule: evenodd"/>
<path id="Body014_f0007"  d="M -164.99999999999994 -177.79999999999998 L -142.77499999999995 -177.79999999999998 Q -142.77499999999995 -13.470384181607796 -142.77499999999995 -11.1125 L -164.99999999999994 -11.1125 Q -164.99999999999994 -13.470384181607796 -164.99999999999994 -177.79999999999998 Z " stroke="#191919" stroke-width="0.35 px" style="stroke-width:0.35;stroke-miterlimit:4;stroke-dasharray:none;stroke-linecap:square;fill:#cccccc;fill-opacity:1.0;fill-rule: evenodd"/>
<path id="Body014_f0008"  d="M -164.99999999999994 -38.099999999999994 L -164.99999999999994 -177.79999999999998 L -142.77499999999995 -177.79999999999998 L -142.77499999999995 -38.099999999999994 L -164.99999999999994 -38.099999999999994 Z " stroke="#191919" stroke-width="0.35 px" style="stroke-width:0.35;stroke-miterlimit:4;stroke-dasharray:none;stroke-linecap:square;fill:#cccccc;fill-opacity:1.0;fill-rule: evenodd"/>
<path id="Body014_f0009"  d="M -164.99999999999994 -38.1 L -164.99999999999994 -38.099999999999994 L -142.77499999999995 -38.099999999999994 L -142.77499999999995 -38.1 L -164.99999999999994 -38.1 Z " stroke="#191919" stroke-width="0.35 px" style="stroke-width:0.35;stroke-miterlimit:4;stroke-dasharray:none;stroke-linecap:square;fill:#cccccc;fill-opacity:1.0;fill-rule: evenodd"/>
<path id="Body014_f0010"  d="M -164.99999999999994 -177.79999999999998 L -164.99999999999994 -38.1 L -142.77499999999995 -38.1 L -142.77499999999995 -177.79999999999998 L -164.99999999999994 -177.79999999999998 Z " stroke="#191919" stroke-width="0.35 px" style="stroke-width:0.35;stroke-miterlimit:4;stroke-dasharray:none;stroke-linecap:square;fill:#cccccc;fill-opacity:1.0;fill-rule: evenodd"/>
<path id="Body014_f0011"  d="M -164.99999999999994 -11.1125 L -142.77499999999995 -11.1125 Q -142.77499999999995 -13.470384181605272 -142.77499999999995 -177.79999999999998 L -164.99999999999994 -177.79999999999998 Q -164.99999999999994 -13.470384181605272 -164.99999999999994 -11.1125 Z " stroke="#191919" stroke-width="0.35 px" style="stroke-width:0.35;stroke-miterlimit:4;stroke-dasharray:none;stroke-linecap:square;fill:#cccccc;fill-opacity:1.0;fill-rule: evenodd"/>
<path id="Body014_f0013"  d="M -164.99999999999994 11.1125 L -164.99999999999994 -11.1125 L -142.77499999999995 -11.1125 L -142.77499999999995 11.1125 L -164.99999999999994 11.1125 Z " stroke="#191919" stroke-width="0.35 px" style="stroke-width:0.35;stroke-miterlimit:4;stroke-dasharray:none;stroke-linecap:square;fill:#cccccc;fill-opacity:1.0;fill-rule: evenodd"/>
<path id="Body014_f0015"  d="M -164.99999999999994 177.79999999999998 L -142.77499999999995 177.79999999999998 Q -142.77499999999995 13.470384181605512 -142.77499999999995 11.1125 L -164.99999999999994 11.1125 Q -164.99999999999994 13.470384181605512 -164.99999999999994 177.79999999999998 Z " stroke="#191919" stroke-width="0.35 px" style="stroke-width:0.35;stroke-miterlimit:4;stroke-dasharray:none;stroke-linecap:square;fill:#cccccc;fill-opacity:1.0;fill-rule: evenodd"/>
<path id="Body014_f0016"  d="M -164.99999999999994 0.0 M -164.99999999999994 0.0 L -164.99999999999994 10.331110734125323 L -164.99999999999994 18.87587856712581 L -164.99999999999994 24.156835513896898 L -164.99999999999994 25.260856142354143 L -164.99999999999994 21.997045256124743 L -164.99999999999994 14.92974540822882 L -164.99999999999994 5.280956946771086 L -164.99999999999994 -5.28095694677108 L -164.99999999999994 -14.929745408228815 L -164.99999999999994 -21.997045256124732 L -164.99999999999994 -25.26085614235414 L -164.99999999999994 -24.1568355138969 L -164.99999999999994 -18.875878567125806 L -164.99999999999994 -10.331110734125323 L -164.99999999999994 -6.221205739668554e-15 L -142.77499999999995 0.0 M -142.77499999999995 0.0 L -142.77499999999995 10.331110734125323 L -142.77499999999995 18.87587856712581 L -142.77499999999995 24.156835513896898 L -142.77499999999995 25.260856142354143 L -142.77499999999995 21.997045256124743 L -142.77499999999995 14.92974540822882 L -142.77499999999995 5.280956946771086 L -142.77499999999995 -5.28095694677108 L -142.77499999999995 -14.929745408228815 L -142.77499999999995 -21.997045256124732 L -142.77499999999995 -25.26085614235414 L -142.77499999999995 -24.1568355138969 L -142.77499999999995 -18.875878567125806 L -142.77499999999995 -10.331110734125323 L -142.77499999999995 -6.221205739668554e-15 Z " stroke="#191919" stroke-width="0.35 px" style="stroke-width:0.35;stroke-miterlimit:4;stroke-dasharray:none;stroke-linecap:square;fill:#cccccc;fill-opacity:1.0;fill-rule: evenodd"/>
<path id="Body014_f0017"  d="M -164.99999999999994 177.79999999999998 Q -164.99999999999994 13.470384181605512 -164.99999999999994 11.1125 L -164.99999999999994 11.1125 L -164.99999999999994 -11.1125 L -164.99999999999994 -11.1125 Q -164.99999999999994 -13.470384181605272 -164.99999999999994 -177.79999999999998 L -164.99999999999994 -38.1 L -164.99999999999994 -38.099999999999994 L -164.99999999999994 -177.79999999999998 Q -164.99999999999994 -13.470384181607796 -164.99999999999994 -11.1125 L -164.99999999999994 -11.1125 L -164.99999999999994 11.1125 L -164.99999999999994 11.1125 Q -164.99999999999994 13.47038418160448 -164.99999999999994 177.79999999999998 L -164.99999999999994 38.1 L -164.99999999999994 38.099999999999994 L -164.99999999999994 177.79999999999998 Z M -164.99999999999994 0.0 M -164.99999999999994 0.0 L -164.99999999999994 10.331110734125323 L -164.99999999999994 18.87587856712581 L -164.99999999999994 24.156835513896898 L -164.99999999999994 25.260856142354143 L -164.99999999999994 21.997045256124743 L -164.99999999999994 14.92974540822882 L -164.99999999999994 5.280956946771086 L -164.99999999999994 -5.28095694677108 L -164.99999999999994 -14.929745408228815 L -164.99999999999994 -21.997045256124732 L -164.99999999999994 -25.26085614235414 L -164.99999999999994 -24.1568355138969 L -164.99999999999994 -18.875878567125806 L -164.99999999999994 -10.331110734125323 L -164.99999999999994 -6.221205739668554e-15 Z " stroke="#191919" stroke-width="0.35 px" style="stroke-width:0.35;stroke-miterlimit:4;stroke-dasharray:none;stroke-linecap:square;fill:#cccccc;fill-opacity:1.0;fill-rule: evenodd"/>
<path id="Body014_f0018"  d="M -142.77499999999995 177.79999999999998 L -142.77499999999995 38.099999999999994 L -142.77499999999995 38.1 L -142.77499999999995 177.79999999999998 Q -142.77499999999995 13.47038418160448 -142.77499999999995 11.1125 L -142.77499999999995 11.1125 L -142.77499999999995 -11.1125 L -142.77499999999995 -11.1125 Q -142.77499999999995 -13.470384181607796 -142.77499999999995 -177.79999999999998 L -142.77499999999995 -38.099999999999994 L -142.77499999999995 -38.1 L -142.77499999999995 -177.79999999999998 Q -142.77499999999995 -13.470384181605272 -142.77499999999995 -11.1125 L -142.77499999999995 -11.1125 L -142.77499999999995 11.1125 L -142.77499999999995 11.1125 Q -142.77499999999995 13.470384181605512 -142.77499999999995 177.79999999999998 Z M -142.77499999999995 0.0 M -142.77499999999995 0.0 L -142.77499999999995 10.331110734125323 L -142.77499999999995 18.87587856712581 L -142.77499999999995 24.156835513896898 L -142.77499999999995 25.260856142354143 L -142.77499999999995 21.997045256124743 L -142.77499999999995 14.92974540822882 L -142.77499999999995 5.280956946771086 L -142.77499999999995 -5.28095694677108 L -142.77499999999995 -14.929745408228815 L -142.77499999999995 -21.997045256124732 L -142.77499999999995 -25.26085614235414 L -142.77499999999995 -24.1568355138969 L -142.77499999999995 -18.875878567125806 L -142.77499999999995 -10.331110734125323 L -142.77499999999995 -6.221205739668554e-15 Z " stroke="#191919" stroke-width="0.35 px" style="stroke-width:0.35;stroke-miterlimit:4;stroke-dasharray:none;stroke-linecap:square;fill:#cccccc;fill-opacity:1.0;fill-rule: evenodd"/>
<title>b'BladeEmit'</title>
</g>
</svg>