<?xml version="1.0"?>
<!DOCTYPE svg PUBLIC "-//W3C//DTD SVG 1.1//EN" "http://www.w3.org/Graphics/SVG/1.1/DTD/svg11.dtd">
<svg width="829.0559999999999mm" height="16.256000000000117mm" viewBox="0 0 829.0559999999999 16.256000000000117" xmlns="http://www.w3.org/2000/svg" version="1.1">
<g id="Sketch011" transform="translate(414.528000,8.128000) scale(1,-1)">
<path id="Sketch011_w0000"  d="M -76.2 7.331912854624535e-14 L -76.2 7.895906151134114e-14 L 76.2 7.895906151134114e-14 L 76.2 7.331912854624535e-14 L 228.59999999999997 7.331912854624535e-14 L 381.0 3.947953075567057e-14 L 381.0 1.6919798895287386e-14 L 406.4 1.6919798895287386e-14 L 406.4 -1.6919798895287386e-14 L 381.0 -1.6919798895287386e-14 L 381.0 -3.947953075567057e-14 L -381.0 -3.947953075567057e-14 L -381.0 -1.6919798895287383e-14 L -406.4 -1.6919798895287383e-14 L -406.4 1.691979889528739e-14 L -381.0 1.691979889528739e-14 L -381.0 3.9479530755670575e-14 L -228.59999999999997 7.331912854624535e-14 L -76.2 7.331912854624535e-14 " stroke="#000000" stroke-width="0.35 px" style="stroke-width:0.35;stroke-miterlimit:4;stroke-dasharray:none;stroke-linecap:square;fill:none;fill-opacity:1;fill-rule: evenodd"/>
<path id="Sketch011_w0001"  d="M 31.75 3.947953075567057e-14 L 53.975 3.947953075567057e-14 L 53.975 5.639932965095795e-14 L 31.75 5.639932965095795e-14 L 31.75 3.947953075567057e-14 " stroke="#000000" stroke-width="0.35 px" style="stroke-width:0.35;stroke-miterlimit:4;stroke-dasharray:none;stroke-linecap:square;fill:none;fill-opacity:1;fill-rule: evenodd"/>
<path id="Sketch011_w0002"  d="M -53.975 3.947953075567057e-14 L -31.75 3.947953075567057e-14 L -31.75 5.639932965095795e-14 L -53.975 5.639932965095795e-14 L -53.975 3.947953075567057e-14 " stroke="#000000" stroke-width="0.35 px" style="stroke-width:0.35;stroke-miterlimit:4;stroke-dasharray:none;stroke-linecap:square;fill:none;fill-opacity:1;fill-rule: evenodd"/>
<path id="Sketch011_w0003"  d="M -53.975 5.639932965095796e-15 L -31.75 5.639932965095795e-15 L -31.75 2.2559731860383186e-14 L -53.975 2.2559731860383186e-14 L -53.975 5.639932965095796e-15 " stroke="#000000" stroke-width="0.35 px" style="stroke-width:0.35;stroke-miterlimit:4;stroke-dasharray:none;stroke-linecap:square;fill:none;fill-opacity:1;fill-rule: evenodd"/>
<path id="Sketch011_w0004"  d="M 31.75 5.6399329650957925e-15 L 53.975 5.639932965095792e-15 L 53.975 2.255973186038318e-14 L 31.75 2.2559731860383183e-14 L 31.75 5.6399329650957925e-15 " stroke="#000000" stroke-width="0.35 px" style="stroke-width:0.35;stroke-miterlimit:4;stroke-dasharray:none;stroke-linecap:square;fill:none;fill-opacity:1;fill-rule: evenodd"/>
<path id="Sketch011_w0005"  d="M -53.975 -2.8199664825478976e-14 L -31.75 -2.8199664825478976e-14 L -31.75 -1.1279865930191593e-14 L -53.975 -1.1279865930191595e-14 L -53.975 -2.8199664825478976e-14 " stroke="#000000" stroke-width="0.35 px" style="stroke-width:0.35;stroke-miterlimit:4;stroke-dasharray:none;stroke-linecap:square;fill:none;fill-opacity:1;fill-rule: evenodd"/>
<path id="Sketch011_w0006"  d="M 31.75 -2.8199664825478976e-14 L 53.975 -2.8199664825478976e-14 L 53.975 -1.1279865930191593e-14 L 31.75 -1.1279865930191591e-14 L 31.75 -2.8199664825478976e-14 " stroke="#000000" stroke-width="0.35 px" style="stroke-width:0.35;stroke-miterlimit:4;stroke-dasharray:none;stroke-linecap:square;fill:none;fill-opacity:1;fill-rule: evenodd"/>
<title>b'Sketch011'</title>
</g>
</svg>