<?xml version="1.0"?>
<!DOCTYPE svg PUBLIC "-//W3C//DTD SVG 1.1//EN" "http://www.w3.org/Graphics/SVG/1.1/DTD/svg11.dtd">
<svg width="3.940621162712433e-13mm" height="1524.0mm" viewBox="0 0 3.940621162712433e-13 1524.0" xmlns="http://www.w3.org/2000/svg" version="1.1">
<g id="Sketch003" transform="translate(0.000000,609.600000) scale(1,-1)">
<path id="Sketch003_w0000"  d="M 7.613909502879323e-14 609.6000000000001 L 4.229949723821845e-14 457.20000000000005 L 4.7939430203314254e-14 457.20000000000005 L 1.4099832412739488e-14 304.80000000000007 L 8.459899447643685e-15 304.80000000000007 L -2.5379698342931087e-14 152.40000000000006 L -1.9739765377835285e-14 152.40000000000006 L -5.357936316841006e-14 5.357936316841007e-14 L -5.921929613350586e-14 5.921929613350587e-14 L -9.305889392408063e-14 -152.39999999999995 L -8.741896095898484e-14 -152.39999999999995 L -1.212585587495596e-13 -304.79999999999995 L -1.268984917146554e-13 -304.79999999999995 L -1.6073808950523018e-13 -457.19999999999993 L -1.5509815654013437e-13 -457.19999999999993 L -1.8893775433070916e-13 -609.6 L -1.9457768729580495e-13 -609.5999999999999 L -2.284172850863797e-13 -761.9999999999999 L -2.227773521212839e-13 -762.0 L -2.566169499118587e-13 -914.4 L -2.0303758674344862e-13 -914.4 L -1.6919798895287386e-13 -762.0 L -1.7483792191796965e-13 -762.0 L -1.4099832412739488e-13 -609.6 L -1.353583911622991e-13 -609.6 L -1.0151879337172432e-13 -457.20000000000005 L -1.0715872633682011e-13 -457.20000000000005 L -7.331912854624534e-14 -304.8 L -6.767919558114955e-14 -304.8 L -3.383959779057477e-14 -152.4 L -3.947953075567057e-14 -152.4 L -5.639932965095795e-15 5.6399329650957965e-15 L 0.0 0.0 L 3.383959779057477e-14 152.4 L 2.8199664825478976e-14 152.4 L 6.203926261605376e-14 304.8 L 6.767919558114955e-14 304.8 L 1.0151879337172431e-13 457.2 L 9.587886040662852e-14 457.2 L 1.297184581972033e-13 609.6 L 7.613909502879323e-14 609.6000000000001 " stroke="#000000" stroke-width="0.35 px" style="stroke-width:0.35;stroke-miterlimit:4;stroke-dasharray:none;stroke-linecap:square;fill:none;fill-opacity:1;fill-rule: evenodd"/>
<title>b'Sketch003'</title>
</g>
</svg>