<?xml version="1.0"?>
<!DOCTYPE svg PUBLIC "-//W3C//DTD SVG 1.1//EN" "http://www.w3.org/Graphics/SVG/1.1/DTD/svg11.dtd">
<svg width="4.314548718298283e-13mm" height="1524.0mm" viewBox="0 0 4.314548718298283e-13 1524.0" xmlns="http://www.w3.org/2000/svg" version="1.1">
<g id="Sketch005" transform="translate(0.000000,762.000000) scale(1,-1)">
<path id="Sketch005_w0000"  d="M -2.1995738563873602e-13 -762.0 L -1.8611778784816125e-13 -609.6 L -1.8047785488306544e-13 -609.6 L -1.4663825709249067e-13 -457.19999999999993 L -1.5227819005758646e-13 -457.19999999999993 L -1.184385922670117e-13 -304.79999999999995 L -1.127986593019159e-13 -304.79999999999995 L -7.895906151134114e-14 -152.39999999999995 L -8.459899447643693e-14 -152.39999999999995 L -5.0759396685862156e-14 5.075939668586217e-14 L -4.511946372076636e-14 4.511946372076637e-14 L -1.1279865930191587e-14 152.40000000000006 L -1.6919798895287383e-14 152.40000000000006 L 1.691979889528739e-14 304.80000000000007 L 2.2559731860383186e-14 304.80000000000007 L 5.639932965095795e-14 457.20000000000005 L 5.0759396685862156e-14 457.20000000000005 L 8.459899447643693e-14 609.6 L 9.023892744153273e-14 609.6 L 1.2407852523210748e-13 762.0 L 3.9479530755670556e-14 762.0000000000001 L -2.9891644715007716e-13 -761.9999999999999 L -2.1995738563873602e-13 -762.0 " stroke="#000000" stroke-width="0.35 px" style="stroke-width:0.35;stroke-miterlimit:4;stroke-dasharray:none;stroke-linecap:square;fill:none;fill-opacity:1;fill-rule: evenodd"/>
<title>b'Sketch005'</title>
</g>
</svg>