<?xml version="1.0"?>
<!DOCTYPE svg PUBLIC "-//W3C//DTD SVG 1.1//EN" "http://www.w3.org/Graphics/SVG/1.1/DTD/svg11.dtd">
<svg width="5.892316299813382e-14mm" height="76.20000000000005mm" viewBox="0 0 5.892316299813382e-14 76.20000000000005" xmlns="http://www.w3.org/2000/svg" version="1.1">
<g id="Sketch017" transform="translate(0.000000,38.100000) scale(1,-1)">
<path id="Sketch017_w0000"  d="M -8.459899447643696e-15 38.100000000000016 M -8.459899447643693e-15 38.100000000000016 L -1.1186013919794152e-14 36.556682294712374 L -1.4376645550526818e-14 32.051759600868024 L -1.777330834053667e-14 24.95019396331539 L -2.1100824871308548e-14 15.827311995371899 L -2.40896195430221e-14 5.422195338212196 L -2.649755798642144e-14 -5.422195338212134 L -2.8129563349383663e-14 -15.827311995371845 L -2.8853420263311194e-14 -24.950193963315336 L -2.8610486145980444e-14 -32.05175960086799 L -2.7420442074792736e-14 -36.556682294712324 L -2.537969834293108e-14 -38.09999999999999 L 8.459899447643693e-15 -38.100000000000016 M 8.459899447643693e-15 -38.100000000000016 L 1.1186013919794149e-14 -36.556682294712374 L 1.4376645550526818e-14 -32.051759600868024 L 1.777330834053667e-14 -24.950193963315392 L 2.110082487130855e-14 -15.827311995371897 L 2.4089619543022104e-14 -5.422195338212192 L 2.6497557986421437e-14 5.422195338212129 L 2.8129563349383663e-14 15.827311995371835 L 2.8853420263311194e-14 24.950193963315346 L 2.8610486145980444e-14 32.05175960086798 L 2.7420442074792736e-14 36.55668229471233 L 2.537969834293108e-14 38.09999999999999 L -8.459899447643696e-15 38.100000000000016 " stroke="#000000" stroke-width="0.35 px" style="stroke-width:0.35;stroke-miterlimit:4;stroke-dasharray:none;stroke-linecap:square;fill:none;fill-opacity:1;fill-rule: evenodd"/>
<path id="Sketch017_w0001"  d="M -1.1279865930191591e-14 25.400000000000016 M -1.1279865930191591e-14 25.400000000000016 L -1.4061431155010963e-14 23.20405462412208 L -1.733723412957984e-14 16.99591740151502 L -2.05408587598595e-14 7.849031657123687 L -2.3118369243258504e-14 -2.655022966998372 L -2.4624090601249532e-14 -12.699999999999973 L -2.479766993198684e-14 -20.54903165712364 L -2.360909379226722e-14 -24.844949058638644 L -2.126387779452345e-14 -24.844949058638647 L -1.8167531090383905e-14 -20.549031657123653 L -1.4855440154421037e-14 -12.699999999999998 L -1.1900295598864358e-14 -2.6550229669984065 L -9.813068764015096e-15 7.849031657123671 L -8.954660131479207e-15 16.99591740151502 L -9.47349635221975e-15 23.204054624122076 L -1.1279865930191591e-14 25.400000000000016 " stroke="#000000" stroke-width="0.35 px" style="stroke-width:0.35;stroke-miterlimit:4;stroke-dasharray:none;stroke-linecap:square;fill:none;fill-opacity:1;fill-rule: evenodd"/>
<path id="Sketch017_w0002"  d="M 2.255973186038318e-14 25.39999999999998 M 2.255973186038318e-14 25.39999999999998 L 1.977816663556381e-14 23.204054624122048 L 1.6502363660994933e-14 16.995917401514983 L 1.3298739030715273e-14 7.849031657123653 L 1.0721228547316267e-14 -2.6550229669984056 L 9.215507189325237e-15 -12.700000000000006 L 9.041927858587934e-15 -20.549031657123674 L 1.0230503998307551e-14 -24.844949058638676 L 1.2575719996051321e-14 -24.84494905863868 L 1.5672066700190868e-14 -20.549031657123688 L 1.8984157636153736e-14 -12.700000000000031 L 2.1939302191710415e-14 -2.65502296699844 L 2.4026529026559675e-14 7.849031657123637 L 2.4884937659095566e-14 16.995917401514983 L 2.4366101438355022e-14 23.204054624122044 L 2.255973186038318e-14 25.39999999999998 " stroke="#000000" stroke-width="0.35 px" style="stroke-width:0.35;stroke-miterlimit:4;stroke-dasharray:none;stroke-linecap:square;fill:none;fill-opacity:1;fill-rule: evenodd"/>
<title>b'Sketch017'</title>
</g>
</svg>