<?xml version="1.0"?>
<!DOCTYPE svg PUBLIC "-//W3C//DTD SVG 1.1//EN" "http://www.w3.org/Graphics/SVG/1.1/DTD/svg11.dtd">
<svg width="2.0709833847831762e-13mm" height="304.8000000000001mm" viewBox="0 0 2.0709833847831762e-13 304.8000000000001" xmlns="http://www.w3.org/2000/svg" version="1.1">
<g id="Sketch013" transform="translate(0.000000,304.800000) scale(1,-1)">
<path id="Sketch013_w0000"  d="M -1.353583911622991e-13 1.3535839116229912e-13 L -6.767919558114955e-14 304.8000000000001 L 6.767919558114955e-14 304.8 L 0.0 0.0 L -1.353583911622991e-13 1.3535839116229912e-13 " stroke="#000000" stroke-width="0.35 px" style="stroke-width:0.35;stroke-miterlimit:4;stroke-dasharray:none;stroke-linecap:square;fill:none;fill-opacity:1;fill-rule: evenodd"/>
<path id="Sketch013_w0001"  d="M -1.0997869281936801e-13 19.050000000000114 L -1.0433875985427222e-13 44.45000000000012 L -8.741896095898484e-14 44.4500000000001 L -9.305889392408063e-14 19.050000000000097 L -1.0997869281936801e-13 19.050000000000114 " stroke="#000000" stroke-width="0.35 px" style="stroke-width:0.35;stroke-miterlimit:4;stroke-dasharray:none;stroke-linecap:square;fill:none;fill-opacity:1;fill-rule: evenodd"/>
<path id="Sketch013_w0002"  d="M -7.19091453049714e-14 19.050000000000075 L -6.62692123398756e-14 44.450000000000074 L -4.934941344458821e-14 44.45000000000005 L -5.4989346409684e-14 19.05000000000006 L -7.19091453049714e-14 19.050000000000075 " stroke="#000000" stroke-width="0.35 px" style="stroke-width:0.35;stroke-miterlimit:4;stroke-dasharray:none;stroke-linecap:square;fill:none;fill-opacity:1;fill-rule: evenodd"/>
<path id="Sketch013_w0003"  d="M -3.383959779057477e-14 19.05000000000004 L -2.819966482547898e-14 44.45000000000004 L -1.127986593019159e-14 44.450000000000024 L -1.6919798895287386e-14 19.050000000000022 L -3.383959779057477e-14 19.05000000000004 " stroke="#000000" stroke-width="0.35 px" style="stroke-width:0.35;stroke-miterlimit:4;stroke-dasharray:none;stroke-linecap:square;fill:none;fill-opacity:1;fill-rule: evenodd"/>
<title>b'Sketch013'</title>
</g>
</svg>